<svg xmlns="http://www.w3.org/2000/svg" width="65.208" height="52.985" viewBox="0 0 65.208 52.985">
  <path id="ico_twitter" d="M59.532,14.688c.04.575.04,1.15.04,1.73,0,17.677-13.457,38.065-38.065,38.065v-.011A37.873,37.873,0,0,1,1,48.474a27.211,27.211,0,0,0,3.184.193A26.863,26.863,0,0,0,20.8,42.93a13.4,13.4,0,0,1-12.5-9.29,13.335,13.335,0,0,0,6.04-.23A13.379,13.379,0,0,1,3.609,20.3v-.17A13.293,13.293,0,0,0,9.681,21.8,13.4,13.4,0,0,1,5.541,3.938,37.97,37.97,0,0,0,33.112,17.914a13.391,13.391,0,0,1,22.8-12.2,26.845,26.845,0,0,0,8.5-3.248,13.428,13.428,0,0,1-5.881,7.4,26.606,26.606,0,0,0,7.682-2.106A27.178,27.178,0,0,1,59.532,14.688Z" transform="translate(-1 -1.498)" fill="#1d9bf0"/>
</svg>
