<svg xmlns="http://www.w3.org/2000/svg" width="20.948" height="18.455" viewBox="0 0 20.948 18.455">
  <g id="ico_btn_delete" transform="translate(-497.712 -24.158)">
    <path id="ico_btn_delete-2" data-name="ico_btn_delete" d="M18.011,3.441a5.328,5.328,0,0,0-7.27.53l-.768.791-.768-.791a5.328,5.328,0,0,0-7.27-.53,5.594,5.594,0,0,0-.386,8.1l7.539,7.784a1.221,1.221,0,0,0,1.765,0l7.539-7.784a5.591,5.591,0,0,0-.382-8.1Z" transform="translate(498.212 22.41)" fill="#dd2e24"/>
    <path id="ico_btn_delete_-_アウトライン" data-name="ico_btn_delete - アウトライン" d="M5.2,1.748A6.114,6.114,0,0,1,9.566,3.623l.408.421.409-.421a6.123,6.123,0,0,1,4.363-1.875,5.462,5.462,0,0,1,3.591,1.313,5.987,5.987,0,0,1,2.105,4.317,6.086,6.086,0,0,1-1.688,4.511l-7.539,7.784a1.721,1.721,0,0,1-2.483,0L1.191,11.889A6.089,6.089,0,0,1-.494,7.377,5.99,5.99,0,0,1,1.611,3.061,5.464,5.464,0,0,1,5.2,1.748ZM9.974,5.48,8.847,4.319A5.11,5.11,0,0,0,5.2,2.748,4.476,4.476,0,0,0,2.26,3.822a5,5,0,0,0-1.755,3.6,5.085,5.085,0,0,0,1.4,3.769l7.539,7.784a.721.721,0,0,0,1.047,0l7.539-7.784a5.082,5.082,0,0,0,1.408-3.768,5,5,0,0,0-1.755-3.6,4.474,4.474,0,0,0-2.942-1.074A5.118,5.118,0,0,0,11.1,4.319Z" transform="translate(498.212 22.41)" fill="#dd2e24"/>
  </g>
</svg>
