<svg xmlns="http://www.w3.org/2000/svg" width="23.712" height="23.712" viewBox="0 0 23.712 23.712">
  <g id="ico_file" transform="translate(14328 280.66)">
    <path id="パス_20910" data-name="パス 20910" d="M22.911,30.9H6.8A3.806,3.806,0,0,1,3,27.1V22.5a1.5,1.5,0,0,1,3,0v4.6a.8.8,0,0,0,.8.8H22.911a.8.8,0,0,0,.8-.8V22.5a1.5,1.5,0,0,1,3,0v4.6A3.806,3.806,0,0,1,22.911,30.9Z" transform="translate(-14331 -287.852)" fill="#2c190e"/>
    <path id="パス_20911" data-name="パス 20911" d="M16.253,22.253a1.5,1.5,0,0,1-1.061-.439L9.439,16.061a1.5,1.5,0,0,1,2.121-2.121l4.693,4.693,4.693-4.693a1.5,1.5,0,0,1,2.121,2.121l-5.753,5.753A1.5,1.5,0,0,1,16.253,22.253Z" transform="translate(-14332.397 -286.106)" fill="#2c190e"/>
    <path id="パス_20912" data-name="パス 20912" d="M18,19.808a1.5,1.5,0,0,1-1.5-1.5V4.5a1.5,1.5,0,1,1,3,0V18.308A1.5,1.5,0,0,1,18,19.808Z" transform="translate(-14334.145 -283.66)" fill="#2c190e"/>
  </g>
</svg>
