<?xml version="1.0" encoding="utf-8"?>
<!-- Generator: Adobe Illustrator 26.0.3, SVG Export Plug-In . SVG Version: 6.00 Build 0)  -->
<svg version="1.1" id="レイヤー_1" xmlns="http://www.w3.org/2000/svg" xmlns:xlink="http://www.w3.org/1999/xlink" x="0px"
	 y="0px" viewBox="0 0 100 100" style="enable-background:new 0 0 100 100;" xml:space="preserve">
<style type="text/css">
	.st0{fill:#707070;}
</style>
<g>
	<path class="st0" d="M50.1,23.4L50.1,23.4C50,23.4,50,23.4,50.1,23.4c-14.7,0-26.6,11.9-26.6,26.5S35.4,76.5,50,76.5l0,0
		c7.1,0,13.7-2.7,18.8-7.8c5-5,7.8-11.7,7.8-18.8c0-7.1-2.7-13.7-7.8-18.8C63.8,26.2,57.1,23.4,50.1,23.4z M64.1,49.9
		C64.1,57.7,57.8,64,50,64s-14.1-6.3-14.1-14.1S42.2,35.8,50,35.8S64.1,42.2,64.1,49.9z"/>
	<path class="st0" d="M99.6,30.1c0.2-8-2.8-15.6-8.4-21.5c-5.8-5.5-13.5-8.5-21.3-8.3c-8-0.4-31.8-0.4-39.7,0
		c-8-0.2-15.6,2.8-21.5,8.4C3.2,14.5,0.2,22.2,0.4,30c-0.4,8-0.4,31.8,0,39.7c-0.2,8,2.8,15.7,8.4,21.6c5.8,5.5,13.6,8.4,21.3,8.3
		c4.1,0.3,12,0.4,19.9,0.4s15.9-0.1,19.7-0.4c8,0.1,15.7-2.7,21.6-8.4c5.5-5.8,8.5-13.5,8.3-21.3C100.1,61.9,100.1,38.2,99.6,30.1z
		 M87.5,53.4c0.1,7.1,0.2,19.1-1.9,24.1l0,0c-1.4,3.7-4.4,6.6-8.1,8.1c-5.1,2-17,1.9-24.1,1.9H50h-3.3c-7.2,0.1-19.2,0.2-24.2-1.9
		c-3.7-1.4-6.6-4.4-8.1-8.1c-2-5.1-1.9-17-1.9-24.1v-3.4v-3.3c-0.1-7.1-0.2-19.2,1.9-24.2c1.4-3.7,4.4-6.6,8.1-8
		c5.1-2,17-1.9,24.1-1.9H50h3.3c7.1-0.1,19.2-0.2,24.2,1.9c3.7,1.4,6.6,4.4,8.1,8.1c2,5.1,1.9,17,1.9,24.1V50L87.5,53.4z"/>
	<path class="st0" d="M75.6,16.6L75.6,16.6c-4.2,0-7.7,3.4-7.7,7.7s3.4,7.7,7.7,7.7s7.7-3.4,7.7-7.7l0,0
		C83.3,20.1,79.9,16.6,75.6,16.6z"/>
</g>
</svg>
