<svg xmlns="http://www.w3.org/2000/svg" width="23.727" height="23.727" viewBox="0 0 23.727 23.727">
  <g id="ico_link" transform="translate(14328.5 369.175)">
    <path id="パス_20907" data-name="パス 20907" d="M19.469,27.772H6.8a3.807,3.807,0,0,1-3.8-3.8V11.3A3.807,3.807,0,0,1,6.8,7.5h6.909a1.5,1.5,0,1,1,0,3H6.8a.8.8,0,0,0-.8.8V23.969a.8.8,0,0,0,.8.8H19.469a.8.8,0,0,0,.8-.8V17.06a1.5,1.5,0,0,1,3,0v6.909A3.807,3.807,0,0,1,19.469,27.772Z" transform="translate(-14331.5 -373.22)" fill="#2c190e"/>
    <path id="パス_20908" data-name="パス 20908" d="M29.409,12.909a1.5,1.5,0,0,1-1.5-1.5V6H22.5a1.5,1.5,0,0,1,0-3h6.909a1.5,1.5,0,0,1,1.5,1.5v6.909A1.5,1.5,0,0,1,29.409,12.909Z" transform="translate(-14335.683 -372.175)" fill="#2c190e"/>
    <path id="パス_20909" data-name="パス 20909" d="M15,18.666a1.5,1.5,0,0,1-1.061-2.561L26.606,3.439a1.5,1.5,0,1,1,2.121,2.121L16.061,18.227A1.5,1.5,0,0,1,15,18.666Z" transform="translate(-14333.939 -372.175)" fill="#2c190e"/>
  </g>
</svg>
