<svg xmlns="http://www.w3.org/2000/svg" xmlns:xlink="http://www.w3.org/1999/xlink" width="65" height="65" viewBox="0 0 65 65">
  <defs>
    <clipPath id="clip-path">
      <rect id="長方形_15" data-name="長方形 15" width="65" height="65" transform="translate(-0.039 0.275)" fill="none"/>
    </clipPath>
  </defs>
  <g id="ico_line" transform="translate(0.039 -0.275)" opacity="0.9">
    <g id="グループ_16" data-name="グループ 16" clip-path="url(#clip-path)">
      <path id="パス_11" data-name="パス 11" d="M50.766,65.542H14.776A14.776,14.776,0,0,1,0,50.766V14.776A14.776,14.776,0,0,1,14.776,0H50.766A14.776,14.776,0,0,1,65.542,14.776v35.99A14.776,14.776,0,0,1,50.766,65.542" fill="#06c755"/>
      <path id="パス_12" data-name="パス 12" d="M96.982,76.079c0-9.778-9.8-17.733-21.852-17.733S53.279,66.3,53.279,76.079c0,8.766,7.774,16.107,18.275,17.5.711.154,1.68.469,1.925,1.078a4.487,4.487,0,0,1,.071,1.976s-.256,1.542-.312,1.871c-.1.552-.439,2.161,1.893,1.178S87.715,92.266,92.3,86.99h0c3.167-3.473,4.684-7,4.684-10.911" transform="translate(-42.366 -46.396)" fill="#fff"/>
      <path id="パス_13" data-name="パス 13" d="M205.708,132.227h-6.139a.417.417,0,0,1-.417-.417V131.8h0v-9.52h0v-.009a.417.417,0,0,1,.417-.417h6.139a.418.418,0,0,1,.417.417v1.55a.417.417,0,0,1-.417.417h-4.172v1.609h4.172a.418.418,0,0,1,.417.417v1.55a.417.417,0,0,1-.417.417h-4.172v1.609h4.172a.418.418,0,0,1,.417.417v1.55a.417.417,0,0,1-.417.417" transform="translate(-158.362 -96.898)" fill="#06c755"/>
      <path id="パス_14" data-name="パス 14" d="M94.834,132.227a.417.417,0,0,0,.417-.417v-1.55a.419.419,0,0,0-.417-.417H90.662v-7.57a.418.418,0,0,0-.417-.417H88.7a.417.417,0,0,0-.417.417V131.8h0v.007a.417.417,0,0,0,.417.417h6.139Z" transform="translate(-70.197 -96.898)" fill="#06c755"/>
      <path id="パス_15" data-name="パス 15" d="M130.7,121.855h-1.55a.417.417,0,0,0-.417.417v9.537a.417.417,0,0,0,.417.417h1.55a.417.417,0,0,0,.417-.417v-9.537a.417.417,0,0,0-.417-.417" transform="translate(-102.364 -96.897)" fill="#06c755"/>
      <path id="パス_16" data-name="パス 16" d="M156.288,121.855h-1.55a.417.417,0,0,0-.417.417v5.664l-4.363-5.892a.468.468,0,0,0-.034-.043l0,0-.025-.026-.008-.007-.023-.019-.011-.008-.022-.015-.013-.008-.023-.013-.013-.006-.024-.011-.014,0-.025-.008-.015,0-.025-.005-.018,0-.023,0h-1.578a.417.417,0,0,0-.417.417v9.537a.417.417,0,0,0,.417.417h1.55a.417.417,0,0,0,.417-.417v-5.663l4.369,5.9a.422.422,0,0,0,.108.105l0,0,.026.016.012.007.02.01.02.009.013,0,.029.009h.006a.425.425,0,0,0,.109.015h1.541a.417.417,0,0,0,.417-.417v-9.537a.417.417,0,0,0-.417-.417" transform="translate(-117.405 -96.897)" fill="#06c755"/>
    </g>
  </g>
</svg>
