<svg xmlns="http://www.w3.org/2000/svg" width="14.105" height="15.506" viewBox="0 0 14.105 15.506">
  <g id="ico_calendar" transform="translate(-3.75 -2.25)">
    <path id="パス_146311" data-name="パス 146311" d="M5.9,5.25h9.8a2.118,2.118,0,0,1,2.151,2.079v9.3A2.118,2.118,0,0,1,15.7,18.711H5.9A2.118,2.118,0,0,1,3.75,16.632v-9.3A2.118,2.118,0,0,1,5.9,5.25Zm9.8,11.961a.619.619,0,0,0,.651-.579v-9.3A.619.619,0,0,0,15.7,6.75H5.9a.619.619,0,0,0-.651.579v9.3a.619.619,0,0,0,.651.579Z" transform="translate(0 -0.955)"/>
    <path id="パス_146312" data-name="パス 146312" d="M24,7.84a.75.75,0,0,1-.75-.75V3a.75.75,0,0,1,1.5,0V7.09A.75.75,0,0,1,24,7.84Z" transform="translate(-10.396)"/>
    <path id="パス_146313" data-name="パス 146313" d="M12,7.84a.75.75,0,0,1-.75-.75V3a.75.75,0,0,1,1.5,0V7.09A.75.75,0,0,1,12,7.84Z" transform="translate(-3.998)"/>
    <path id="パス_146314" data-name="パス 146314" d="M17.105,15.75H4.5a.75.75,0,0,1,0-1.5H17.105a.75.75,0,1,1,0,1.5Z" transform="translate(0 -6.398)"/>
  </g>
</svg>
