<svg xmlns="http://www.w3.org/2000/svg" width="113.643" height="116.772" viewBox="0 0 113.643 116.772">
  <path id="logo_w" d="M84,115.772a33.332,33.332,0,0,1-7.391-.794,56.06,56.06,0,0,1-8.734-2.993,13.3,13.3,0,0,0-4.825-1.221,6.016,6.016,0,0,0-3.36,1.221,8.588,8.588,0,0,0-2.871,3.726h-2.26V84.534h-6.67v-2.26h1.649c3.2,0,5.482-.452,6.78-1.344a3.275,3.275,0,0,0,1.344-2.81,7.535,7.535,0,0,0-.366-2.26c-.08-.364-.7-1.9-1.832-4.581l-4.4-10.322H21.805L18.324,69.02a18.025,18.025,0,0,0-1.711,6.657,5.553,5.553,0,0,0,2.81,5.131c1.095.649,3.828,1.142,8.123,1.466v2.26H0v-2.26a12.372,12.372,0,0,0,7.33-3.7c1.9-2,4.287-6.207,7.085-12.49L44.038,0H45.2l16.11,36.633c.2-.2.4-.4.578-.57A24.323,24.323,0,0,1,70.1,30.841,28.378,28.378,0,0,1,80.21,29.1a31.3,31.3,0,0,1,7.818.977A39.281,39.281,0,0,1,95.021,32.8c2.735,1.317,4.677,1.985,5.773,1.985a3.278,3.278,0,0,0,2.5-.977c.607-.648,1.183-2.23,1.711-4.7h1.832l.671,27.608h-2.5A28.393,28.393,0,0,0,96.3,40c-4.6-4.195-9.646-6.322-14.995-6.322-4.134,0-7.453,1.12-9.865,3.329a10.18,10.18,0,0,0-3.634,7.665,9.351,9.351,0,0,0,1.283,4.886,20.862,20.862,0,0,0,5.681,5.681,128.354,128.354,0,0,0,13.254,7.146c3.45,1.7,6.541,3.382,9.187,5.01a8.917,8.917,0,0,1-.425.831,9.288,9.288,0,0,1-1.6,1.94A5.949,5.949,0,0,1,93.44,71.33v.514H95.7v9.6a6.007,6.007,0,0,0,.327,2.282,2.413,2.413,0,0,0,1.013,1.138,2.773,2.773,0,0,0,1.4.4,3.347,3.347,0,0,0,2.057-.771,4.915,4.915,0,0,0,1.543-2.3h-.607a2.059,2.059,0,0,1-.748.942,1.793,1.793,0,0,1-1,.32,1.269,1.269,0,0,1-1.021-.483,3.122,3.122,0,0,1-.4-1.869V71.844h3.334V70.754H98.271V68.06a38.565,38.565,0,0,1,9.364,7.827,23.219,23.219,0,0,1,3.756,6.81,23.664,23.664,0,0,1,1.252,7.727,23.235,23.235,0,0,1-2.023,9.658,25.678,25.678,0,0,1-6.069,8.208,27.147,27.147,0,0,1-9.185,5.611A33.179,33.179,0,0,1,84,115.772ZM56.836,84.534c1.79,8.708,5.267,15.447,10.334,20.029,5.087,4.6,10.645,6.933,16.521,6.933,4.54,0,8.208-1.254,10.9-3.726a11.234,11.234,0,0,0,2.5-14.354,18.134,18.134,0,0,0-4.734-5.222A42.318,42.318,0,0,0,87.2,84.911a5.337,5.337,0,0,0,1.53-1.2,7.462,7.462,0,0,0,1.9-3.888l-.482-.312a5.719,5.719,0,0,1-1.738,2.642,3.988,3.988,0,0,1-2.439.772,4.724,4.724,0,0,1-3.662-1.808,7.363,7.363,0,0,1-1.543-4.987h9.864A5.825,5.825,0,0,0,89.086,71.9a5.292,5.292,0,0,0-3.943-1.582,6.15,6.15,0,0,0-4.714,2.049,8.177,8.177,0,0,0-1.877,5.711,7.706,7.706,0,0,0,1.831,5.385,6.7,6.7,0,0,0,1.241,1.072H75.631v-.067a3.147,3.147,0,0,1-1.41-.219,1.281,1.281,0,0,1-.553-.607,5.174,5.174,0,0,1-.218-1.839V75.709a8.948,8.948,0,0,0-.343-2.867,3.94,3.94,0,0,0-1.34-1.924,3.454,3.454,0,0,0-2.011-.584c-1.51,0-3.12,1.017-4.784,3.023V70.333H64.3L60,72.078l.233.561a3.018,3.018,0,0,1,1.044-.233.979.979,0,0,1,.647.2,1.344,1.344,0,0,1,.358.763A23.125,23.125,0,0,1,62.4,76.5v5.3a4.056,4.056,0,0,1-.382,2.111,1.684,1.684,0,0,1-1.472.553h-.312v.067ZM36.647,27.914l-12.7,28.525H48.985ZM68.571,84.534H67.293v-.067a3.734,3.734,0,0,1-1.551-.211,1.448,1.448,0,0,1-.6-.662,5.4,5.4,0,0,1-.172-1.792V74.275a5.162,5.162,0,0,1,3.694-2.026,1.816,1.816,0,0,1,1.706.881,5.963,5.963,0,0,1,.507,2.829V81.8a9.186,9.186,0,0,1-.062,1.464,1.6,1.6,0,0,1-.554.9,2.39,2.39,0,0,1-1.395.3h-.3v.066Zm18.8-9.308H80.764a4.379,4.379,0,0,1,1.192-2.8,3.228,3.228,0,0,1,2.315-1.005,2.939,2.939,0,0,1,1.613.5,3.109,3.109,0,0,1,1.161,1.372,6.127,6.127,0,0,1,.327,1.931Z" transform="translate(0.5 0.5)" fill="#fff" stroke="rgba(0,0,0,0)" stroke-miterlimit="10" stroke-width="1"/>
</svg>
