<svg xmlns="http://www.w3.org/2000/svg" width="189.336" height="195.734" viewBox="0 0 189.336 195.734">
  <g id="pct_japan" transform="translate(-8.368)">
    <path id="パス_65408" data-name="パス 65408" d="M197.618,438.122a9.278,9.278,0,0,1-9.277,9.277H168.833a9.274,9.274,0,0,1-9.277-9.277v-4.283a9.274,9.274,0,0,1,9.277-9.277h19.509a9.278,9.278,0,0,1,9.277,9.277Z" transform="translate(-93.39 -262.255)" fill="#183962"/>
    <path id="パス_65409" data-name="パス 65409" d="M19.276,365.687H17.645a9.282,9.282,0,0,0-9.277,9.277v12.813c0,5.125,2.389,9.282,6.481,9.282h1.021c4.426,0,3.4,4.151,3.4,9.277v6.009a9.282,9.282,0,0,0,9.277,9.276H42.733a9.278,9.278,0,0,0,9.277-9.277V374.964a9.278,9.278,0,0,0-9.277-9.277H19.276Z" transform="translate(0 -225.887)" fill="#183962"/>
    <path id="パス_65410" data-name="パス 65410" d="M191.8,161.438a9.269,9.269,0,0,0-9.062,7.311l-5.185,23.905a9.276,9.276,0,0,1-9.068,7.311H110.4a9.282,9.282,0,0,0-9.277,9.277v7.025a9.282,9.282,0,0,0,9.277,9.277H112.3a9.283,9.283,0,0,1,9.277,9.282v4.617a9.282,9.282,0,0,0,9.277,9.277h71.919a9.283,9.283,0,0,0,9.062-7.3l15.029-68.729a9.278,9.278,0,0,0-9.068-11.254h-26Z" transform="translate(-57.293 -99.721)" fill="#183962"/>
    <path id="パス_65411" data-name="パス 65411" d="M393.046,41.574a9.271,9.271,0,0,1-9.115,7.527H343.593a9.278,9.278,0,0,1-9.115-11.015l5.83-30.548A9.281,9.281,0,0,1,349.423,0h40.344a9.287,9.287,0,0,1,9.11,11.027Z" transform="translate(-201.338)" fill="#183962"/>
  </g>
</svg>
