<svg xmlns="http://www.w3.org/2000/svg" xmlns:xlink="http://www.w3.org/1999/xlink" width="25.506" height="32.625" viewBox="0 0 25.506 32.625">
  <defs>
    <clipPath id="clip-path">
      <rect id="長方形_2276" data-name="長方形 2276" width="5.012" height="8.584" fill="#fff"/>
    </clipPath>
  </defs>
  <g id="pct_scrollhint" transform="translate(1412.506 -17559)">
    <path id="パス_35842" data-name="パス 35842" d="M8,16.875a.75.75,0,0,1-.75-.75V4.969a2.719,2.719,0,0,1,5.438,0v9.844a.75.75,0,0,1-1.5,0V4.969a1.219,1.219,0,0,0-2.437,0V16.125A.75.75,0,0,1,8,16.875Z" transform="translate(-1411.5 17562.938)" fill="#fff"/>
    <path id="パス_35843" data-name="パス 35843" d="M14.938,14a.75.75,0,0,1-.75-.75V9.969a1.219,1.219,0,0,0-2.437,0v2.625a.75.75,0,0,1-1.5,0V9.969a2.719,2.719,0,0,1,5.438,0V13.25A.75.75,0,0,1,14.938,14Z" transform="translate(-1410.563 17564.5)" fill="#fff"/>
    <path id="パス_35844" data-name="パス 35844" d="M17.938,13.688a.75.75,0,0,1-.75-.75V10.969a1.219,1.219,0,0,0-2.437,0,.75.75,0,0,1-1.5,0,2.719,2.719,0,0,1,5.438,0v1.969A.75.75,0,0,1,17.938,13.688Z" transform="translate(-1409.625 17564.813)" fill="#fff"/>
    <path id="パス_35845" data-name="パス 35845" d="M17.275,26.5H14.65a.756.756,0,0,1-.114-.009,8.6,8.6,0,0,1-6.819-3.874l-.259-.4c-.42-.645-1.839-3.118-4.338-7.559A2.719,2.719,0,0,1,4.092,11,3.2,3.2,0,0,1,8,11.477l1.93,1.93a.75.75,0,1,1-1.061,1.061L6.94,12.538a1.7,1.7,0,0,0-2.076-.255,1.213,1.213,0,0,0-.436,1.643c2.448,4.351,3.89,6.866,4.288,7.476l.255.39A7.106,7.106,0,0,0,14.923,25h2.352A7.133,7.133,0,0,0,24.4,17.875V11.969a1.219,1.219,0,0,0-2.437,0,.75.75,0,0,1-1.5,0,2.719,2.719,0,0,1,5.438,0v5.906A8.635,8.635,0,0,1,17.275,26.5Z" transform="translate(-1412.9 17565.125)" fill="#fff"/>
    <g id="グループ_6172" data-name="グループ 6172" transform="translate(-1412.506 17559)">
      <g id="グループ_6171" data-name="グループ 6171" transform="translate(0 0)" clip-path="url(#clip-path)">
        <path id="パス_35846" data-name="パス 35846" d="M1.727,4.292,4.8,1.225A.718.718,0,0,0,3.785.21L.212,3.784a.715.715,0,0,0,0,1.011l0,0L3.785,8.373a.715.715,0,0,0,1.011,0l0,0a.715.715,0,0,0,0-1.011l0,0Z" transform="translate(0 0)" fill="#fff"/>
      </g>
    </g>
    <g id="グループ_6173" data-name="グループ 6173" transform="translate(-1390.988 17567.584) rotate(180)">
      <g id="グループ_6171-2" data-name="グループ 6171" transform="translate(0 0)" clip-path="url(#clip-path)">
        <path id="パス_35846-2" data-name="パス 35846" d="M1.727,4.292,4.8,1.225A.718.718,0,0,0,3.785.21L.212,3.784a.715.715,0,0,0,0,1.011l0,0L3.785,8.373a.715.715,0,0,0,1.011,0l0,0a.715.715,0,0,0,0-1.011l0,0Z" transform="translate(0 0)" fill="#fff"/>
      </g>
    </g>
  </g>
</svg>
