<svg id="pct_man" xmlns="http://www.w3.org/2000/svg" width="75.523" height="134.406" viewBox="0 0 75.523 134.406">
  <path id="パス_3" data-name="パス 3" d="M230.008,33.569a16.784,16.784,0,1,0-16.786-16.783A16.784,16.784,0,0,0,230.008,33.569Z" transform="translate(-192.246)" fill="#183962"/>
  <path id="パス_4" data-name="パス 4" d="M215.625,97.623H172.958c-7.868,0-16.428,8.492-16.428,16.3v54.146a7.124,7.124,0,0,0,14.248,0V123.551h3.284v70.171h41.562c0-13.577-1.105-17.512-1.105-70.171h3.291V168.07a7.121,7.121,0,0,0,14.242,0V113.924C232.053,106.115,223.493,97.623,215.625,97.623Z" transform="translate(-156.53 -59.317)" fill="#183962"/>
</svg>
